<svg preserveAspectRatio="xMidYMid meet" data-bbox="1 1 584.693 539.798" xmlns="http://www.w3.org/2000/svg" viewBox="0 0 587 542" height="30" width="30" data-type="ugc" role="presentation" aria-hidden="true" aria-label="">
    <g>
        <path fill="#000000" d="M123.06 174.892c8.761-30.127 15.862-46.422 34-74 23.153-36.492 45.584-49.308 60-60 14.415-10.693 56.99-34.055 82.5-36.5 47.111-5.534 71.389-6.132 102 12.5 16.877 14.893 26.695 22.978 24 52.5-1.11 5.569-2.26 10.04-3.791 14-2.454 6.346-5.887 11.377-11.709 17.5-18.412 12.826-36.217 16.888-97 12-39.547-4.479-64.69-2.341-122 21-30.472 13.122-45.366 22.095-68 41Zm239.5-158c-8.409-1.876-17-2.5-32-2.5s-25.785-.358-52 6.5c-24.641 5.37-61.5 31-64 32.5s-27.234 20.423-44 42.5c-14.488 20.629-21.981 33.444-34.5 58 0 0 22.5-15.5 29.5-20s30.5-15.5 44.5-21 31.813-11.449 65-14.5c33.186-3.052 81.301 4.445 86 4 35.95-1.374 46.431-7.243 54-23.5-19.529-11.824-55.5-15.5-58.5-16s-37.798-2.59-65 1.5c0 0 9-5.5 20-8.5s42.5-4.5 51-4.5 40.232 4.567 54.5 11.5c-.381-7.212-2.868-11.457-7-19-10.124-12.392-18.438-18.76-47.5-27Z" clip-rule="evenodd" fill-rule="evenodd"></path>
        <path fill="#000000" d="M445.56 83.392c-6.722-5.63-10.735-8.748-20-14-1.11 5.569-2.26 10.04-3.791 14 16.176 10.375 22.299 18.391 30.791 34.5 0 0 5.5 8 5.5 24.5s-7 24.5-15 29.5-22 0-22 0 .5 1-11-6.5-26.921-18.375-54-26c-13.073-4.446-53.782-8.564-60-9-6.219-.436-23.797.475-55.5 7.5-12.097 2.349-40.233 16.529-49.5 22-9.268 5.47-27.604 18.157-36.5 27-8.897 8.842-21.619 25.655-37 50.5-6.544 11.95-10.689 21.172-18.5 42.5-2.898 5.571-23.605-21.318-41-49-1.761-2.256-3.31-3.273-8.5-4h-43c-5.005 3.332-6.51 5.944-5 13 14.246 13.831 21.49 23.935 33 46l39.5 91.5c22.3 38.501 35.999 59.363 65.5 93.5 29.337 30.025 48.381 42.469 86 58.5 89.644 23.687 123.529 8.204 180.5-25.5 18.974-14.093 28.784-22.5 43-39.5 10.383-13.168 15.252-20.359 23-33 0 0 14.5-31 17-39.5s6.5-38.5 6.5-38.5c1.704-14.783 1.941-23.671 0-41.5l-6-30.5-7-20.5-4-14c-.681-3.196-.126-4.714 4-6.5 7.585-2.834 21.5-1.5 21.5-1.5s14.834 2.569 19 4.5c6.741 3.319 12.267 7.155 14.5 10 7.349 8.873 5.5 8 5.5 8s-9 3.5-12.5 7.5-5.5 6-7 10.5-3 16-2.5 23 4 25.5 4 29.5-.5 18-1 25-6.5 25-6.5 25l-10 29c13.174-6.25 19.905-11.365 31.5-21.5 0 0 15-17 18.5-21.5s13-18.5 14.5-21.5 7-16.5 8-19.5 5-18.5 5.5-22-.5-15.5-1.5-18.5-1.5-9.5-7.5-16-8-5.5-10.5-7-12.5-3.5-12.5-3.5c-.913-5.446-2.026-8.056-11-18-5.343-5.401-9.429-7.612-20.5-12-11.912-2.917-19.229-3.788-35.5-1.5l-.197.057c-4.107 1.206-6.469 1.899-15.803 7.943-3.324 2.56-4.375 5.066-4 12.5l13 34c6.837 26.897 9.54 41.36 9.5 64.5-2.269 28.371-4.639 44.017-17 70-11.419 22.125-20.19 34.501-40.5 56.5-65.435 57.63-127 53.5-147.5 53.5s-46.5-8-46.5-8c-15.765-5.754-33.5-14-45.5-21.5s-31.757-23.325-42.5-36.5c-10.744-13.175-22.566-25.274-35-43-12.924-18.423-18.797-29.705-29.5-49.5-7.897-14.604-19.06-38-19.06-38s-19.44-49-22.44-54.5-16.33-26.624-19.5-30.5c-3.171-3.876-7.5-7-6.5-7.5s24.008-1.365 28 1.5c3.991 2.865 6.864 7.659 11 12 3.805 3.993 29.94 38.196 29.305 36.734 1.757 2.503 6.178 7.809 11.195 6.266 6.5-2 6.396-5.919 7.5-10.5s6.24-22.206 17-40.5 16.049-23.722 23.5-34.5c7.451-10.778 25-25 32.5-30.5s23.722-16.462 34.5-20.5c10.777-4.039 13-6 23-9s24-7.5 45-7.5 23.5 0 42 3 47 13.5 56 17.5 32.042 21.91 43 24.5c10.958 2.59 22-4.5 31.5-15s10.645-21.289 12.5-39.5c-.061-8.339-.755-13.72-4.5-26-2.298-7.33-6.037-12.577-15-23ZM85.865 288.626a18.474 18.474 0 0 1-.805-1.234c.492.71.75 1.107.805 1.234Zm464.039-13.276.156.042s.5 2.5.5 3 .957 23.952-.5 40c5.917-6.325 7.233-16.618 7.5-42 9.408-.337 18 5.5 19 17s-3.996 41.406-19 63.5c-14.256 18.226-22.389 27.634-38 38 4.011-8.808 5.961-14.497 8.5-27 0 0 4-20.5 4-28.5s-1.5-25-1.5-25c-1.862-14.254-1.376-17.556-.518-23.377l.018-.123c2.726-9.565 4.674-11.174 8.5-13.5 3.825-2.326 9.458-2.546 11.344-2.042Z" clip-rule="evenodd" fill-rule="evenodd"></path>
        <path stroke="#000000" d="M425.56 69.392c2.695-29.522-7.123-37.607-24-52.5-30.611-18.632-54.889-18.034-102-12.5-25.51 2.445-68.085 25.807-82.5 36.5-14.416 10.692-36.847 23.508-60 60-18.138 27.578-25.239 43.873-34 74 22.634-18.905 37.528-27.878 68-41 57.31-23.341 82.453-25.479 122-21 60.783 4.888 78.588.826 97-12 5.822-6.123 9.255-11.154 11.709-17.5m3.791-14c9.265 5.252 13.278 8.37 20 14 8.963 10.423 12.702 15.67 15 23 3.745 12.28 4.439 17.661 4.5 26-1.855 18.211-3 29-12.5 39.5s-20.542 17.59-31.5 15c-10.958-2.59-34-20.5-43-24.5s-37.5-14.5-56-17.5-21-3-42-3-35 4.5-45 7.5-12.223 4.961-23 9c-10.778 4.038-27 15-34.5 20.5s-25.049 19.722-32.5 30.5c-7.451 10.778-12.74 16.206-23.5 34.5s-15.896 35.919-17 40.5c-1.104 4.581-1 8.5-7.5 10.5-5.017 1.543-9.438-3.763-11.195-6.266M425.56 69.392c-1.11 5.569-2.26 10.04-3.791 14m64.791 145c16.271-2.288 23.588-1.417 35.5 1.5 11.071 4.388 15.157 6.599 20.5 12 8.974 9.944 10.087 12.554 11 18 0 0 10 2 12.5 3.5s4.5.5 10.5 7 6.5 13 7.5 16 2 15 1.5 18.5-4.5 19-5.5 22-6.5 16.5-8 19.5-11 17-14.5 21.5-18.5 21.5-18.5 21.5c-11.595 10.135-18.326 15.25-31.5 21.5l10-29s6-18 6.5-25 1-21 1-25-3.5-22.5-4-29.5 1-18.5 2.5-23 3.5-6.5 7-10.5 12.5-7.5 12.5-7.5 1.849.873-5.5-8c-2.233-2.845-7.759-6.681-14.5-10-4.166-1.931-19-4.5-19-4.5s-13.915-1.334-21.5 1.5c-4.126 1.786-4.681 3.304-4 6.5l4 14 7 20.5 6 30.5c1.941 17.829 1.704 26.717 0 41.5 0 0-4 30-6.5 38.5s-17 39.5-17 39.5c-7.748 12.641-12.617 19.832-23 33-14.216 17-24.027 25.407-43 39.5-56.971 33.704-90.856 49.187-180.5 25.5-37.619-16.031-56.663-28.475-86-58.5-29.501-34.137-43.2-54.999-65.5-93.5l-39.5-91.5c-11.51-22.065-18.754-32.169-33-46-1.51-7.056-.005-9.668 5-13h43c5.19.727 6.739 1.744 8.5 4 17.395 27.682 38.102 54.571 41 49 7.811-21.328 11.956-30.55 18.5-42.5 15.381-24.845 28.103-41.658 37-50.5 8.896-8.843 27.232-21.53 36.5-27 9.267-5.471 37.403-19.651 49.5-22 31.703-7.025 49.281-7.936 55.5-7.5 6.218.436 46.927 4.554 60 9 27.079 7.625 42.5 18.5 54 26s11 6.5 11 6.5 14 5 22 0 15-13 15-29.5-5.5-24.5-5.5-24.5c-8.492-16.109-14.615-24.125-30.791-34.5m64.791 145-.197.057m.197-.057-.197.057m63.697 46.943s.5 2.5.5 3 .957 23.952-.5 40c5.917-6.325 7.233-16.618 7.5-42 9.408-.337 18 5.5 19 17s-3.996 41.406-19 63.5c-14.256 18.226-22.389 27.634-38 38 4.011-8.808 5.961-14.497 8.5-27 0 0 4-20.5 4-28.5s-1.5-25-1.5-25c-1.862-14.254-1.376-17.556-.518-23.377m20.018-15.623-.156-.042m.156.042a16.731 16.731 0 0 1-.156-.042m-19.844 15.542c2.726-9.565 4.674-11.174 8.5-13.5 3.825-2.326 9.458-2.546 11.344-2.042m-19.844 15.542-.018.123m.018-.123-.018.123m-43.679-62.566c-4.107 1.206-6.469 1.899-15.803 7.943-3.324 2.56-4.375 5.066-4 12.5l13 34c6.837 26.897 9.54 41.36 9.5 64.5-2.269 28.371-4.639 44.017-17 70-11.419 22.125-20.19 34.501-40.5 56.5-65.435 57.63-127 53.5-147.5 53.5s-46.5-8-46.5-8c-15.765-5.754-33.5-14-45.5-21.5s-31.757-23.325-42.5-36.5c-10.744-13.175-22.566-25.274-35-43-12.924-18.423-18.797-29.705-29.5-49.5-7.897-14.604-19.06-38-19.06-38s-19.44-49-22.44-54.5-16.33-26.624-19.5-30.5c-3.171-3.876-7.5-7-6.5-7.5s24.008-1.365 28 1.5c3.991 2.865 6.864 7.659 11 12 3.805 3.993 29.94 38.196 29.305 36.734m0 0a18.549 18.549 0 0 1-.805-1.234c.492.71.75 1.107.805 1.234ZM330.56 14.392c15 0 23.591.624 32 2.5 29.062 8.24 37.376 14.608 47.5 27 4.132 7.543 6.619 11.788 7 19-14.268-6.933-46-11.5-54.5-11.5s-40 1.5-51 4.5-20 8.5-20 8.5c27.202-4.09 62-2 65-1.5s38.971 4.176 58.5 16c-7.569 16.257-18.05 22.126-54 23.5-4.699.445-52.814-7.052-86-4-33.187 3.051-51 9-65 14.5s-37.5 16.5-44.5 21-29.5 20-29.5 20c12.519-24.556 20.012-37.371 34.5-58 16.766-22.077 41.5-41 44-42.5s39.359-27.13 64-32.5c26.215-6.858 37-6.5 52-6.5Zm-111.5 403c57.382-2.691 153.5 0 150.5 0s-38.5 3.5-76 3-59.052-.622-74.5-3Z" fill="none"></path>
    </g>
</svg>